<svg xmlns="http://www.w3.org/2000/svg" viewBox="0 0 64.5 43.49"><title>Asset 1</title><g id="Layer_2" data-name="Layer 2"><g id="Icons"><path d="M57.11,41.34h-56a1.08,1.08,0,1,0,0,2.15h56a1.08,1.08,0,1,0,0-2.15Z" style="fill:#fff"/><path d="M7.66,38.62A4.26,4.26,0,1,0,3.4,34.37,4.26,4.26,0,0,0,7.66,38.62Zm0-6.58A2.37,2.37,0,1,1,5.29,34.4,2.36,2.36,0,0,1,7.66,32Z" style="fill:#fff"/><path d="M23.84,21.77a4.26,4.26,0,1,0-4.26-4.26A4.27,4.27,0,0,0,23.84,21.77Zm0-6.58a2.37,2.37,0,1,1-2.37,2.36A2.36,2.36,0,0,1,23.84,15.19Z" style="fill:#fff"/><path d="M39.79,35.25A4.26,4.26,0,1,0,35.53,31,4.26,4.26,0,0,0,39.79,35.25Zm0-6.58A2.37,2.37,0,1,1,37.42,31,2.37,2.37,0,0,1,39.79,28.67Z" style="fill:#fff"/><path d="M19,21.46l-7.62,7.83a6.42,6.42,0,0,1,1.42,1.43l7.71-7.91A6.47,6.47,0,0,1,19,21.46Z" style="fill:#fff"/><path d="M55.28,8.09,42.66,25.42a6.6,6.6,0,0,1,1.63,1.2L56.77,9.48A6.35,6.35,0,0,1,55.28,8.09Z" style="fill:#fff"/><path d="M35.33,26.58,29,21.13a6.51,6.51,0,0,1-1.43,1.44l6.62,5.67A6.08,6.08,0,0,1,35.33,26.58Z" style="fill:#fff"/><path d="M60.24,8.51A4.26,4.26,0,1,0,56,4.25,4.26,4.26,0,0,0,60.24,8.51Zm0-6.58a2.37,2.37,0,1,1-2.37,2.36A2.36,2.36,0,0,1,60.24,1.93Z" style="fill:#fff"/></g></g></svg>