<svg id="icons" xmlns="http://www.w3.org/2000/svg" viewBox="0 0 56.8 49"><title>Meg_calendar</title><g id="calendar"><path d="M54.4,54.5H10.1A2.48,2.48,0,0,1,7.6,52V12.5A2.48,2.48,0,0,1,10.1,10H54.3a2.48,2.48,0,0,1,2.5,2.5V52A2.46,2.46,0,0,1,54.4,54.5Z" transform="translate(-3.9 -6.5)" style="fill:none;stroke:#fff;stroke-linecap:round;stroke-miterlimit:10;stroke-width:2px"/><line x1="1" y1="12.1" x2="55.8" y2="12.1" style="fill:none;stroke:#fff;stroke-linecap:round;stroke-miterlimit:10;stroke-width:2px"/><line x1="12.2" y1="1" x2="12.2" y2="4.5" style="fill:none;stroke:#fff;stroke-linecap:round;stroke-miterlimit:10;stroke-width:2px"/><line x1="20.3" y1="2" x2="20.3" y2="5.5" style="fill:none;stroke:#fff;stroke-linecap:round;stroke-miterlimit:10;stroke-width:2px"/><line x1="35.8" y1="2" x2="35.8" y2="5.5" style="fill:none;stroke:#fff;stroke-linecap:round;stroke-miterlimit:10;stroke-width:2px"/><line x1="28.4" y1="1" x2="28.4" y2="4.5" style="fill:none;stroke:#fff;stroke-linecap:round;stroke-miterlimit:10;stroke-width:2px"/><line x1="43.2" y1="1" x2="43.2" y2="4.5" style="fill:none;stroke:#fff;stroke-linecap:round;stroke-miterlimit:10;stroke-width:2px"/><path d="M19.3,29H14.8a.47.47,0,0,1-.5-.5V24a.47.47,0,0,1,.5-.5h4.5a.47.47,0,0,1,.5.5v4.5A.54.54,0,0,1,19.3,29Z" transform="translate(-3.9 -6.5)" style="fill:none;stroke:#fff;stroke-linecap:round;stroke-miterlimit:10;stroke-width:2px"/><path d="M29.4,29H24.9a.47.47,0,0,1-.5-.5V24a.47.47,0,0,1,.5-.5h4.5a.47.47,0,0,1,.5.5v4.5A.47.47,0,0,1,29.4,29Z" transform="translate(-3.9 -6.5)" style="fill:none;stroke:#fff;stroke-linecap:round;stroke-miterlimit:10;stroke-width:2px"/><path d="M39.3,29H34.8a.47.47,0,0,1-.5-.5V24a.47.47,0,0,1,.5-.5h4.5a.47.47,0,0,1,.5.5v4.5A.54.54,0,0,1,39.3,29Z" transform="translate(-3.9 -6.5)" style="fill:none;stroke:#fff;stroke-linecap:round;stroke-miterlimit:10;stroke-width:2px"/><path d="M49.4,29H44.9a.47.47,0,0,1-.5-.5V24a.47.47,0,0,1,.5-.5h4.5a.47.47,0,0,1,.5.5v4.5A.47.47,0,0,1,49.4,29Z" transform="translate(-3.9 -6.5)" style="fill:none;stroke:#fff;stroke-linecap:round;stroke-miterlimit:10;stroke-width:2px"/><path d="M19.4,39.4H14.9a.47.47,0,0,1-.5-.5V34.4a.47.47,0,0,1,.5-.5h4.5a.47.47,0,0,1,.5.5v4.5A.47.47,0,0,1,19.4,39.4Z" transform="translate(-3.9 -6.5)" style="fill:none;stroke:#fff;stroke-linecap:round;stroke-miterlimit:10;stroke-width:2px"/><path d="M29.6,39.4H25.1a.47.47,0,0,1-.5-.5V34.4a.47.47,0,0,1,.5-.5h4.5a.47.47,0,0,1,.5.5v4.5A.47.47,0,0,1,29.6,39.4Z" transform="translate(-3.9 -6.5)" style="fill:none;stroke:#fff;stroke-linecap:round;stroke-miterlimit:10;stroke-width:2px"/><path d="M39.4,39.4H34.9a.47.47,0,0,1-.5-.5V34.4a.47.47,0,0,1,.5-.5h4.5a.47.47,0,0,1,.5.5v4.5A.47.47,0,0,1,39.4,39.4Z" transform="translate(-3.9 -6.5)" style="fill:none;stroke:#fff;stroke-linecap:round;stroke-miterlimit:10;stroke-width:2px"/><path d="M49.6,39.4H45.1a.47.47,0,0,1-.5-.5V34.4a.47.47,0,0,1,.5-.5h4.5a.47.47,0,0,1,.5.5v4.5A.47.47,0,0,1,49.6,39.4Z" transform="translate(-3.9 -6.5)" style="fill:none;stroke:#fff;stroke-linecap:round;stroke-miterlimit:10;stroke-width:2px"/><path d="M19.2,49.1H14.7a.47.47,0,0,1-.5-.5V44.1a.47.47,0,0,1,.5-.5h4.5a.47.47,0,0,1,.5.5v4.5A.54.54,0,0,1,19.2,49.1Z" transform="translate(-3.9 -6.5)" style="fill:none;stroke:#fff;stroke-linecap:round;stroke-miterlimit:10;stroke-width:2px"/><path d="M29.3,49.1H24.8a.47.47,0,0,1-.5-.5V44.1a.47.47,0,0,1,.5-.5h4.5a.47.47,0,0,1,.5.5v4.5A.47.47,0,0,1,29.3,49.1Z" transform="translate(-3.9 -6.5)" style="fill:none;stroke:#fff;stroke-linecap:round;stroke-miterlimit:10;stroke-width:2px"/><path d="M39.2,49.1H34.7a.47.47,0,0,1-.5-.5V44.1a.47.47,0,0,1,.5-.5h4.5a.47.47,0,0,1,.5.5v4.5A.54.54,0,0,1,39.2,49.1Z" transform="translate(-3.9 -6.5)" style="fill:none;stroke:#fff;stroke-linecap:round;stroke-miterlimit:10;stroke-width:2px"/><path d="M49.3,49.1H44.8a.47.47,0,0,1-.5-.5V44.1a.47.47,0,0,1,.5-.5h4.5a.47.47,0,0,1,.5.5v4.5A.47.47,0,0,1,49.3,49.1Z" transform="translate(-3.9 -6.5)" style="fill:none;stroke:#fff;stroke-linecap:round;stroke-miterlimit:10;stroke-width:2px"/></g></svg>