<svg id="icons" xmlns="http://www.w3.org/2000/svg" viewBox="0 0 45.7 57.6"><title>seminar icon pack_black_test</title><g id="test"><path d="M52.4,59.4H11.9a1.58,1.58,0,0,1-1.6-1.6V9.4a1.58,1.58,0,0,1,1.6-1.6H52.4A1.58,1.58,0,0,1,54,9.4V57.7A1.67,1.67,0,0,1,52.4,59.4Z" transform="translate(-9.3 -2.8)" style="fill:none;stroke:#fff;stroke-miterlimit:10;stroke-width:2px"/><path d="M41.9,6.8V14a.47.47,0,0,1-.5.5H22.6a.47.47,0,0,1-.5-.5V6.8" transform="translate(-9.3 -2.8)" style="fill:none;stroke:#fff;stroke-miterlimit:10;stroke-width:2px"/><path d="M28,7.4V4.2a.43.43,0,0,1,.4-.4h7.5a.43.43,0,0,1,.4.4V7.4" transform="translate(-9.3 -2.8)" style="fill:none;stroke:#fff;stroke-miterlimit:10;stroke-width:2px"/><path d="M26.9,27.7H20.1a.68.68,0,0,1-.7-.7V20.3a.68.68,0,0,1,.7-.7h6.8a.68.68,0,0,1,.7.7V27A.68.68,0,0,1,26.9,27.7Z" transform="translate(-9.3 -2.8)" style="fill:none;stroke:#fff;stroke-miterlimit:10;stroke-width:2px"/><path d="M27,39.1H20.2a.68.68,0,0,1-.7-.7V31.7a.68.68,0,0,1,.7-.7H27a.68.68,0,0,1,.7.7v6.7A.68.68,0,0,1,27,39.1Z" transform="translate(-9.3 -2.8)" style="fill:none;stroke:#fff;stroke-miterlimit:10;stroke-width:2px"/><path d="M27,50.4H20.2a.68.68,0,0,1-.7-.7V43a.68.68,0,0,1,.7-.7H27a.68.68,0,0,1,.7.7v6.7A.68.68,0,0,1,27,50.4Z" transform="translate(-9.3 -2.8)" style="fill:none;stroke:#fff;stroke-miterlimit:10;stroke-width:2px"/><line x1="21.7" y1="21.2" x2="34.7" y2="21.2" style="fill:none;stroke:#fff;stroke-linecap:round;stroke-miterlimit:10;stroke-width:2px"/><line x1="21.7" y1="34.2" x2="34.7" y2="34.2" style="fill:none;stroke:#fff;stroke-linecap:round;stroke-miterlimit:10;stroke-width:2px"/><line x1="21.7" y1="45.2" x2="34.7" y2="45.2" style="fill:none;stroke:#fff;stroke-linecap:round;stroke-miterlimit:10;stroke-width:2px"/><line x1="21.7" y1="18.2" x2="25.7" y2="18.2" style="fill:none;stroke:#fff;stroke-linecap:round;stroke-miterlimit:10;stroke-width:2px"/><line x1="21.7" y1="31.2" x2="25.7" y2="31.2" style="fill:none;stroke:#fff;stroke-linecap:round;stroke-miterlimit:10;stroke-width:2px"/><line x1="21.7" y1="42.2" x2="25.7" y2="42.2" style="fill:none;stroke:#fff;stroke-linecap:round;stroke-miterlimit:10;stroke-width:2px"/><path d="M22.3,22.8l1.9,2.1a.19.19,0,0,0,.3,0l5-6.7" transform="translate(-9.3 -2.8)" style="fill:none;stroke:#fff;stroke-linecap:round;stroke-miterlimit:10;stroke-width:2px"/></g></svg>