<svg xmlns="http://www.w3.org/2000/svg" viewBox="0 0 32 32"><title>Asset 1meg</title><g id="Layer_2" data-name="Layer 2"><g id="close"><rect id="bounding_box" data-name="bounding box" width="32" height="32" style="fill:#fff"/><g id="icon"><path d="M16,17a1,1,0,0,1-.71-.29,1,1,0,0,1,0-1.42l6-6a1,1,0,0,1,1.42,1.42l-6,6A1,1,0,0,1,16,17Z" style="fill:#fff"/><path d="M10,23a1,1,0,0,1-.71-.29,1,1,0,0,1,0-1.42l6-6a1,1,0,0,1,1.42,1.42l-6,6A1,1,0,0,1,10,23Z" style="fill:#fff"/><path d="M16,17a1,1,0,0,1-.71-.29l-6-6a1,1,0,0,1,1.42-1.42l6,6a1,1,0,0,1,0,1.42A1,1,0,0,1,16,17Z" style="fill:#fff"/><path d="M22,23a1,1,0,0,1-.71-.29l-6-6a1,1,0,0,1,1.42-1.42l6,6a1,1,0,0,1,0,1.42A1,1,0,0,1,22,23Z" style="fill:#fff"/></g></g></g></svg>