<svg xmlns="http://www.w3.org/2000/svg" viewBox="0 0 39.12 53.48"><title>Asset 2bgmeg</title><g id="Layer_2" data-name="Layer 2"><g id="Icons"><path d="M19.27,22.49c13.71,0,19.85-4.94,19.85-11.25S33,0,19.27,0,0,4.94,0,11.24,5.56,22.49,19.27,22.49Zm0-20.43c13.53,0,18,4.75,18,9.18s-4.47,9.19-18,9.19S1.84,15.68,1.84,11.24,5.74,2.06,19.27,2.06Z" style="fill:#fff"/><path d="M38.19,18a1,1,0,0,0-.92,1c0,4.44-4.47,9.19-18,9.19S1.84,23.43,1.84,19a1,1,0,0,0-.92-1A1,1,0,0,0,0,19c0,6.3,5.56,11.24,19.27,11.24S39.12,25.29,39.12,19A1,1,0,0,0,38.19,18Z" style="fill:#fff"/><path d="M38.19,25.71a1,1,0,0,0-.92,1c0,4.43-4.47,9.18-18,9.18S1.84,31.17,1.84,26.74a1,1,0,0,0-.92-1,1,1,0,0,0-.92,1C0,33,5.56,38,19.27,38S39.12,33,39.12,26.74A1,1,0,0,0,38.19,25.71Z" style="fill:#fff"/><path d="M38.19,33.45a1,1,0,0,0-.92,1c0,4.43-4.47,9.18-18,9.18S1.84,38.92,1.84,34.49a1,1,0,0,0-.92-1,1,1,0,0,0-.92,1c0,6.3,5.56,11.24,19.27,11.24s19.85-4.94,19.85-11.24A1,1,0,0,0,38.19,33.45Z" style="fill:#fff"/><path d="M38.19,41.2a1,1,0,0,0-.92,1c0,4.44-4.47,9.19-18,9.19S1.84,46.67,1.84,42.23a1,1,0,0,0-.92-1,1,1,0,0,0-.92,1c0,6.31,5.56,11.25,19.27,11.25s19.85-4.94,19.85-11.25A1,1,0,0,0,38.19,41.2Z" style="fill:#fff"/></g></g></svg>