<svg id="icons" xmlns="http://www.w3.org/2000/svg" viewBox="0 0 54.1 52.5"><title>seminar icon pack_black_ringer</title><g id="ringer"><path d="M23.3,47A16.49,16.49,0,1,1,47.6,32.5,16.28,16.28,0,0,1,38.9,47" transform="translate(-4.1 -5.8)" style="fill:none;stroke:#fff;stroke-miterlimit:10;stroke-width:2px"/><line x1="17.6" y1="44.7" x2="36.9" y2="44.7" style="fill:none;stroke:#fff;stroke-linecap:round;stroke-miterlimit:10;stroke-width:2px"/><path d="M37.1,51.3a6,6,0,0,1-12,0" transform="translate(-4.1 -5.8)" style="fill:none;stroke:#fff;stroke-linecap:round;stroke-miterlimit:10;stroke-width:2px"/><path d="M38.9,47v2.3c0,.9-.9,1.6-2.1,1.6H25.4c-1.2,0-2.1-.7-2.1-1.6V47" transform="translate(-4.1 -5.8)" style="fill:none;stroke:#fff;stroke-linecap:round;stroke-miterlimit:10;stroke-width:2px"/><line x1="23.9" y1="22.9" x2="17.5" y2="28.4" style="fill:none;stroke:#fff;stroke-linecap:round;stroke-miterlimit:10;stroke-width:2px"/><line x1="30.3" y1="22.9" x2="23.9" y2="28.4" style="fill:none;stroke:#fff;stroke-linecap:round;stroke-miterlimit:10;stroke-width:2px"/><line x1="36.7" y1="22.9" x2="30.2" y2="28.4" style="fill:none;stroke:#fff;stroke-linecap:round;stroke-miterlimit:10;stroke-width:2px"/><line x1="27.2" y1="1" x2="27.2" y2="6.4" style="fill:none;stroke:#fff;stroke-linecap:round;stroke-miterlimit:10;stroke-width:2px"/><line x1="46.2" y1="8.7" x2="42.4" y2="12.5" style="fill:none;stroke:#fff;stroke-linecap:round;stroke-miterlimit:10;stroke-width:2px"/><line x1="9.6" y1="37.1" x2="5.8" y2="40.9" style="fill:none;stroke:#fff;stroke-linecap:round;stroke-miterlimit:10;stroke-width:2px"/><line x1="8.2" y1="8.7" x2="12" y2="12.5" style="fill:none;stroke:#fff;stroke-linecap:round;stroke-miterlimit:10;stroke-width:2px"/><line x1="44.4" y1="37.1" x2="48.3" y2="40.9" style="fill:none;stroke:#fff;stroke-linecap:round;stroke-miterlimit:10;stroke-width:2px"/><line x1="53.1" y1="25.7" x2="47.7" y2="25.7" style="fill:none;stroke:#fff;stroke-linecap:round;stroke-miterlimit:10;stroke-width:2px"/><line x1="6.4" y1="25.7" x2="1" y2="25.7" style="fill:none;stroke:#fff;stroke-linecap:round;stroke-miterlimit:10;stroke-width:2px"/></g></svg>