<svg xmlns="http://www.w3.org/2000/svg" viewBox="0 0 42.91 59.15"><title>Asset 4bgmeg</title><g id="Layer_2" data-name="Layer 2"><g id="Icons"><path d="M39.4,5.45H25.83V4.38a4.38,4.38,0,1,0-8.75,0V5.45H3.51A3.52,3.52,0,0,0,0,9V55.63a3.52,3.52,0,0,0,3.51,3.52H39.4a3.52,3.52,0,0,0,3.51-3.52V9A3.52,3.52,0,0,0,39.4,5.45ZM16.83,9.06h9.26a1.08,1.08,0,1,1,0,2.16H16.83a1.08,1.08,0,1,1,0-2.16Zm2.62-4.68a2,2,0,1,1,4,0V5.45h-4ZM40.54,55.63a1.14,1.14,0,0,1-1.14,1.14H3.51a1.14,1.14,0,0,1-1.14-1.14V9A1.15,1.15,0,0,1,3.51,7.82H14.29a3.44,3.44,0,0,0,2.54,5.77h9.26a3.45,3.45,0,0,0,2.54-5.77H39.4A1.15,1.15,0,0,1,40.54,9Z" style="fill:#fff"/><path d="M36.82,19H6.6a1.19,1.19,0,0,0,0,2.37H36.82a1.19,1.19,0,1,0,0-2.37Z" style="fill:#fff"/><path d="M36.82,28.45H6.6a1.19,1.19,0,0,0,0,2.37H36.82a1.19,1.19,0,1,0,0-2.37Z" style="fill:#fff"/><path d="M36.82,38H6.6a1.19,1.19,0,0,0,0,2.37H36.82a1.19,1.19,0,1,0,0-2.37Z" style="fill:#fff"/><path d="M36.82,47.45H6.6a1.19,1.19,0,0,0,0,2.37H36.82a1.19,1.19,0,1,0,0-2.37Z" style="fill:#fff"/></g></g></svg>