<svg id="Layer_1" data-name="Layer 1" xmlns="http://www.w3.org/2000/svg" viewBox="0 0 283.99 53.15"><title>admagic_Logo</title><path d="M899.09,512.16c2.44-16.75,4.78-32.8,7.12-48.84l1.4-.62,19.25,30.17c6.53-10.41,12.71-20.26,18.9-30.11l1.29.12c2.4,16.08,4.8,32.15,7.34,49.21-3.72,0-7,.28-10.1-.18-.86-.13-1.82-2.43-2-3.83-.76-5.67-1.23-11.37-2-18.61-4.83,8.42-8.9,15.51-13.6,23.68l-13.39-23.37c-.82,6.3-1.94,11.39-2,16.5-.07,4.85-1.83,6.6-6.52,5.92A42.85,42.85,0,0,0,899.09,512.16Z" transform="translate(-811.11 -460.01)" style="fill:#fff"/><path d="M869.16,462.24c4.29.47,8.68.51,12.85,1.49,10.91,2.57,16.79,10.83,16.79,22.88s-7,22.05-18.11,24.44c-5.29,1.14-10.89.86-16.34,1.27-4,.3-5.46-1.21-5.36-5.45q.42-19.23,0-38.46c-.07-4,.82-6,5.13-5.5a28.91,28.91,0,0,0,5-.31Zm1.14,24.95h0a111.82,111.82,0,0,0,.14,11.44c.12,1.21,1.87,3.11,3,3.2,7.11.56,13.38-6.07,13.75-14.13s-4.88-14.28-12.26-14.8c-3.3-.23-5,.58-4.73,4.33C870.51,480.53,870.3,483.87,870.3,487.19ZM891.09,470c-2.77-1.59-4.57-3.32-6.59-3.64a164.71,164.71,0,0,0-18.66-2c-5.25-.24-5.55.57-3.7,5.65Z" transform="translate(-811.11 -460.01)" style="fill:#fff"/><path d="M967.58,505c-10-1-14.87-8.07-11.82-17.07a27.82,27.82,0,0,1,4.42-8.29c5.42-6.84,11.18-13.4,16.47-19.67,5.22,6.2,10.94,12.63,16.19,19.42a26.79,26.79,0,0,1,4.76,9.66c2.23,9.09-1.87,14.55-10.66,15.89-1.17-2.09-1.93-4.17-3.29-5.72-2.46-2.81-4.23-15.91-2.91-19.5.59-1.59.24-4.66-.85-5.45a6.7,6.7,0,0,0-6-.48c-1.21.69-2.24,4.38-1.5,5.38,2.91,4,1.87,7.49,0,11.19-1.74,3.49-.39,8.42-5,10.67C966.94,501.27,967.47,503.45,967.58,505Z" transform="translate(-811.11 -460.01)" style="fill:#fff"/><path d="M1029.28,501.68V489h11.15c0,6.52.12,13-.13,19.4,0,1-1.67,2.42-2.8,2.71a33.94,33.94,0,0,1-20.17-.5c-10.66-3.72-17.07-13.82-16.19-25.4a23.94,23.94,0,0,1,20-22c4.21-.78,8.6-.53,12.91-.77,4.71-.26,6.69,1.85,5.82,6.56-.23,1.25-.28,2.54-.35,3.17-5.68.32-11.06-.06-16.11,1.06-7.45,1.64-11.66,9.44-10.16,17.11C1014.74,498.29,1020.65,502.66,1029.28,501.68Zm7.8-31.83c2-3.77,1.13-5.67-2.95-5.65-3.49,0-7.09-.45-10.42.29-4.14.91-8.06,2.84-12.08,4.33l.51,1Z" transform="translate(-811.11 -460.01)" style="fill:#fff"/><path d="M855.58,512.19c-4.2,0-7.49.28-10.69-.15-1.2-.15-2.75-1.77-3.15-3-1.07-3.32-3-4.34-6.35-4-2.46.27-5-.14-7.46.1a4.86,4.86,0,0,0-3.19,1.66c-4.11,5.94-5.16,6.39-13.63,4.7q10.71-24.39,21.33-48.58l1.56-.23Zm-21.93-25.56-1.27-.08-3.45,9.16h7.69Z" transform="translate(-811.11 -460.01)" style="fill:#fff"/><path d="M1094.57,501.53c1.4,10.31.5,11.32-9.44,10.94-19.73-.75-31.26-18.73-23.24-36.25,4.59-10,21.29-17.28,31.17-13.44a3.48,3.48,0,0,1,1.85,2.42,68.69,68.69,0,0,1,.09,7.32c-17,0-24.19,5-23.45,15.77C1072.27,498.78,1079.86,503.21,1094.57,501.53Zm-23.89-31.86h22.89c-.77-2.21-.85-4.62-1.94-5.22C1087.29,462,1074.79,465.3,1070.68,469.67Z" transform="translate(-811.11 -460.01)" style="fill:#fff"/><path d="M1044.49,487.21c0-7,.18-13.95-.06-20.91-.18-5.4,3.64-3.43,6.2-3.69,2.73-.28,5.12-.49,5.06,3.82q-.35,20.9.09,41.82c.11,5.32-3.36,3.73-6,3.88-2.82.16-5.64.7-5.38-4C1044.77,501.17,1044.48,494.18,1044.49,487.21Zm5.32-16.25,4-3.95c-1.2-.88-2.4-2.43-3.62-2.46s-2.61,1.4-3.92,2.19C1047.23,467.84,1048.14,468.93,1049.81,471Z" transform="translate(-811.11 -460.01)" style="fill:#fff"/><path d="M981.89,512.25H971.48l5.12-8Z" transform="translate(-811.11 -460.01)" style="fill:#fff"/></svg>