<svg id="Location" xmlns="http://www.w3.org/2000/svg" viewBox="0 0 32 30"><title>Region</title><path d="M30,5V27.78l-8-1.6V22H20v4.18l-8,1.6V9H10V27.78l-8-1.6v-22L10.8,6l.4-2L1.2,2a1,1,0,0,0-.83.21A1,1,0,0,0,0,3V27a1,1,0,0,0,.8,1l10,2a.9.9,0,0,0,.4,0L21,28l9.8,2,.2,0a1,1,0,0,0,1-1V5Z" style="fill:#fff"/><path d="M21,20a1,1,0,0,0,.71-.29C22,19.45,28,13.34,28,7A7,7,0,0,0,14,7c0,6.34,6,12.45,6.29,12.71A1,1,0,0,0,21,20ZM21,2a5,5,0,0,1,5,5c0,4.32-3.47,8.77-5,10.52-1.53-1.75-5-6.2-5-10.52A5,5,0,0,1,21,2Z" style="fill:#fff"/><path d="M24,7a3,3,0,1,0-3,3A3,3,0,0,0,24,7ZM20,7a1,1,0,1,1,1,1A1,1,0,0,1,20,7Z" style="fill:#fff"/></svg>