<svg id="Layer_1" data-name="Layer 1" xmlns="http://www.w3.org/2000/svg" viewBox="0 0 441.72 265.97"><title>USA</title><g id="USA"><path d="M466.14,141.28a17.28,17.28,0,0,0-18.9,3.76l-29.13,29.13a3.41,3.41,0,0,1-2.37,1H409a17.2,17.2,0,0,0-12.27,5.08L368.3,208.68a3.31,3.31,0,0,1-2.37,1H356.8a3.35,3.35,0,0,1-3.34-3.35A17.38,17.38,0,0,0,336.11,189h-7.67a3.36,3.36,0,0,1-3.34-3.34v-3.07a3.35,3.35,0,0,1,3.34-3.35h12.2a17.35,17.35,0,0,0,12.26-29.61l-6.13-6.13a17.24,17.24,0,0,0-12.26-5.08H321.59a153.09,153.09,0,0,1-54.7-10.07l-2.17-.83a67.91,67.91,0,0,0-24.29-4.5H52.5a17.37,17.37,0,0,0-17.35,17.35v78.44a71.67,71.67,0,0,0,21.13,51l27,26.95a134.26,134.26,0,0,0,95.52,39.57A12.84,12.84,0,0,1,188,340.1l43.8,43.8a17.35,17.35,0,0,0,29.61-12.27v-7.38a3.41,3.41,0,0,1,1-2.37l6.9-6.9a45.41,45.41,0,0,1,32.32-13.38H337.7A3.35,3.35,0,0,1,341,345h0v16.17a17.36,17.36,0,0,0,17.35,17.34h3.06a17.36,17.36,0,0,0,17.35-17.34V336.62a20.82,20.82,0,0,0-6.13-14.8,7,7,0,0,1,0-9.82l15.53-15.53a58.61,58.61,0,0,0,17.29-41.73,20.07,20.07,0,0,1,5.92-14.3l8.33-8.33a53.7,53.7,0,0,1,38.21-15.82h1.61a17.37,17.37,0,0,0,17.35-17.35V157.31A17.3,17.3,0,0,0,466.14,141.28ZM53.53,241h0c.08.2.15.4.24.59C53.7,241.39,53.61,241.2,53.53,241ZM190.88,137h49.55a54.14,54.14,0,0,1,19.3,3.55l2.18.83a167,167,0,0,0,59.68,11H334.5a3.28,3.28,0,0,1,2.36,1l6.13,6.13a3.34,3.34,0,0,1-2.36,5.71h-12.2a17.37,17.37,0,0,0-16.11,11H190.88Zm-63.79,21.1h3v-3a7,7,0,0,1,14,0v3h3a7,7,0,0,1,0,14h-3v3a7,7,0,0,1-14,0v-3h-3a7,7,0,0,1,0-14Zm0,45h3v-3a7,7,0,0,1,14,0v3h3a7,7,0,0,1,0,14h-3v3a7,7,0,0,1-14,0v-3h-3a7,7,0,0,1,0-14Zm-50-45h3v-3a7,7,0,0,1,14,0v3h3a7,7,0,0,1,0,14h-3v3a7,7,0,0,1-14,0v-3h-3a7,7,0,0,1,0-14Zm0,45h3v-3a7,7,0,0,1,14,0v3h3a7,7,0,0,1,0,14h-3v3a7,7,0,0,1-14,0v-3h-3a7,7,0,0,1,0-14Zm314.34,51.64a44.64,44.64,0,0,1-13.19,31.83L362.71,302.1l6-6H103.56a120.15,120.15,0,0,0,22.18,14h232a21,21,0,0,0,5,21.57,6.91,6.91,0,0,1,2,4.9v24.51a3.35,3.35,0,0,1-3.35,3.34h-3.06a3.35,3.35,0,0,1-3.35-3.34V345a17.37,17.37,0,0,0-17.35-17.35H301.52a59.36,59.36,0,0,0-42.22,17.48l-6.9,6.9a17.28,17.28,0,0,0-5.08,12.27v7.38a3.35,3.35,0,0,1-5.71,2.37l-43.8-43.8a26.78,26.78,0,0,0-19.06-7.89,120.3,120.3,0,0,1-85.62-35.47l-26.95-27a57.87,57.87,0,0,1-7.84-9.75h333.4A35.31,35.31,0,0,0,391.43,254.74Zm71.42-55.8a3.35,3.35,0,0,1-3.35,3.35h-1.61a67.59,67.59,0,0,0-48.11,19.92l-8.33,8.33a34.41,34.41,0,0,0-4.54,5.61h-206v-46h120.8a17.37,17.37,0,0,0,16.72,12.79h7.67a3.36,3.36,0,0,1,3.35,3.35,17.36,17.36,0,0,0,17.34,17.35h9.13a17.2,17.2,0,0,0,12.27-5.08l28.4-28.41h56.26Zm0-22.79H435.92l21.22-21.21a3.34,3.34,0,0,1,5.71,2.37Z" transform="translate(-35.15 -123)" style="fill:#fff"/></g></svg>