<svg id="World" xmlns="http://www.w3.org/2000/svg" viewBox="0 0 32 32"><title>World</title><path d="M16,0A16,16,0,1,0,32,16,16,16,0,0,0,16,0ZM30,16v0a19.38,19.38,0,0,0-5.06-2.36c-1.23-.41-1.79-.61-2-1.13-.47-.93,0-4.78.81-8.22A14,14,0,0,1,30,16ZM15.17,2c.32,2.17.82,8-2.69,10.1-2.31,1.39-2.4,3.56-2.46,5.14,0,1.19-.11,1.94-.65,2.39-.89.75-3.18.87-6.76.4A13.68,13.68,0,0,1,2,16,14,14,0,0,1,15.17,2ZM9.64,28.46C11.09,26.64,13.69,24,16,24a5.92,5.92,0,0,1,3.33,1.06,12.68,12.68,0,0,0,5.47,1.82A13.94,13.94,0,0,1,9.64,28.46ZM26.72,25a11.57,11.57,0,0,1-6.41-1.67A7.86,7.86,0,0,0,16,22c-3.42,0-6.66,3.59-8.08,5.42a14.19,14.19,0,0,1-4.46-5.23c1,.1,1.92.16,2.72.16,2.12,0,3.55-.37,4.47-1.14,1.25-1,1.31-2.53,1.37-3.85.06-1.65.17-2.71,1.5-3.5,4.4-2.65,4.05-9.06,3.67-11.8A13.87,13.87,0,0,1,21.9,3.32c-.52,2.16-1.8,8.12-.79,10.13.64,1.28,1.83,1.67,3.21,2.13a17.23,17.23,0,0,1,5.47,2.76A14.1,14.1,0,0,1,26.72,25Z" style="fill:#fff"/></svg>